<svg width="40" height="56" viewBox="0 0 40 56" fill="none" xmlns="http://www.w3.org/2000/svg">
<rect width="40" height="56" rx="8" fill="#D2D2D2" fill-opacity="0.25"/>
<path d="M22.75 23.4601L20 19.9301L21.97 19.5401L24.71 23.0701L22.75 23.4601ZM29.62 22.1001L28.84 18.1801L24.91 18.9601L27.65 22.5001L29.62 22.1001ZM19.81 24.0501L17.07 20.5001L15.1 20.9101L17.85 24.4401L19.81 24.0501ZM12.16 21.5001L11.18 21.6901C10.9224 21.7409 10.6773 21.842 10.4589 21.9877C10.2404 22.1334 10.0529 22.3208 9.90707 22.5391C9.76121 22.7574 9.65988 23.0024 9.6089 23.26C9.55791 23.5175 9.55827 23.7826 9.60995 24.0401L9.99995 26.0001L14.9 25.0301L12.16 21.5001ZM12 36.0001V28.0001H28V29.0901C28.72 29.2101 29.39 29.4601 30 29.8101V26.0001H9.99995V36.0001C9.99995 36.5305 10.2107 37.0392 10.5857 37.4143C10.9608 37.7893 11.4695 38.0001 12 38.0001H21.81C21.46 37.3901 21.22 36.7201 21.09 36.0001H12ZM29.34 31.8401L25.75 35.4301L24.16 33.8401L23 35.0001L25.75 38.0001L30.5 33.2501L29.34 31.8401Z" fill="#878787"/>
</svg>
