<svg width="24" height="24" viewBox="0 0 24 24" fill="none" xmlns="http://www.w3.org/2000/svg">
<g clip-path="url(#clip0_2410_724)">
<path d="M11.9997 22.8533C12.4196 22.8436 12.8226 22.6858 13.1374 22.4076C13.4522 22.1294 13.6584 21.7489 13.7197 21.3333H10.213C10.276 21.7602 10.4919 22.1497 10.8205 22.4293C11.1492 22.7089 11.5682 22.8595 11.9997 22.8533Z" fill="#666666"/>
<path d="M21.8996 18.7534L21.673 18.5534C21.0299 17.9805 20.4671 17.3234 19.9996 16.6001C19.4891 15.6018 19.1831 14.5116 19.0996 13.3934V10.1001C19.0969 9.70005 19.0612 9.30092 18.993 8.90674C17.8637 8.67464 16.8493 8.05942 16.1216 7.16527C15.3939 6.27111 14.9975 5.15294 14.9996 4.00008V3.58008C14.3036 3.23754 13.5557 3.01228 12.7863 2.91341V2.07341C12.7863 1.83737 12.6925 1.61099 12.5256 1.44409C12.3587 1.27718 12.1323 1.18341 11.8963 1.18341C11.6602 1.18341 11.4339 1.27718 11.267 1.44409C11.1001 1.61099 11.0063 1.83737 11.0063 2.07341V2.94674C9.28344 3.18978 7.70668 4.04791 6.56711 5.3627C5.42754 6.67749 4.80211 8.36017 4.80629 10.1001V13.3934C4.7228 14.5116 4.41681 15.6018 3.90629 16.6001C3.44688 17.3216 2.89309 17.9786 2.25963 18.5534L2.03296 18.7534V20.6334H21.8996V18.7534Z" fill="#666666"/>
<path d="M19.9996 7.33335C21.8405 7.33335 23.3329 5.84097 23.3329 4.00002C23.3329 2.15907 21.8405 0.666687 19.9996 0.666687C18.1586 0.666687 16.6663 2.15907 16.6663 4.00002C16.6663 5.84097 18.1586 7.33335 19.9996 7.33335Z" fill="#299D91"/>
</g>
<defs>
<clipPath id="clip0_2410_724">
<rect width="24" height="24" fill="white"/>
</clipPath>
</defs>
</svg>
