<svg width="46" height="11" viewBox="0 0 46 11" fill="none" xmlns="http://www.w3.org/2000/svg">
<path d="M1.72159 1.27273L4.15057 8.38068H4.24858L6.67756 1.27273H8.10085L4.96023 10H3.43892L0.298295 1.27273H1.72159ZM9.25888 10V3.45455H10.533V10H9.25888ZM9.90234 2.4446C9.68075 2.4446 9.49041 2.37074 9.33132 2.22301C9.17507 2.07244 9.09695 1.89347 9.09695 1.68608C9.09695 1.47585 9.17507 1.29687 9.33132 1.14915C9.49041 0.998579 9.68075 0.923295 9.90234 0.923295C10.1239 0.923295 10.3129 0.998579 10.4691 1.14915C10.6282 1.29687 10.7077 1.47585 10.7077 1.68608C10.7077 1.89347 10.6282 2.07244 10.4691 2.22301C10.3129 2.37074 10.1239 2.4446 9.90234 2.4446ZM15.0682 10.1321C14.4233 10.1321 13.8679 9.99432 13.402 9.71875C12.9389 9.44034 12.581 9.04972 12.3281 8.54688C12.0781 8.04119 11.9531 7.44886 11.9531 6.76989C11.9531 6.09943 12.0781 5.50852 12.3281 4.99716C12.581 4.4858 12.9332 4.08665 13.3849 3.79972C13.8395 3.51278 14.3707 3.36932 14.9787 3.36932C15.348 3.36932 15.706 3.4304 16.0526 3.55256C16.3991 3.67472 16.7102 3.86648 16.9858 4.12784C17.2614 4.3892 17.4787 4.72869 17.6378 5.14631C17.7969 5.56108 17.8764 6.06534 17.8764 6.65909V7.1108H12.6733V6.15625H16.6278C16.6278 5.82102 16.5597 5.52415 16.4233 5.26562C16.2869 5.00426 16.0952 4.7983 15.848 4.64773C15.6037 4.49716 15.3168 4.42188 14.9872 4.42188C14.6293 4.42188 14.3168 4.50994 14.0497 4.68608C13.7855 4.85937 13.581 5.08665 13.4361 5.3679C13.294 5.64631 13.223 5.94886 13.223 6.27557V7.02131C13.223 7.45881 13.2997 7.83097 13.4531 8.13778C13.6094 8.4446 13.8267 8.67898 14.1051 8.84091C14.3835 9 14.7088 9.07955 15.081 9.07955C15.3224 9.07955 15.5426 9.04545 15.7415 8.97727C15.9403 8.90625 16.1122 8.80114 16.2571 8.66193C16.402 8.52273 16.5128 8.35085 16.5895 8.14631L17.7955 8.36364C17.6989 8.71875 17.5256 9.02983 17.2756 9.29688C17.0284 9.56108 16.7173 9.76705 16.3423 9.91477C15.9702 10.0597 15.5455 10.1321 15.0682 10.1321ZM20.6974 10L18.7713 3.45455H20.0881L21.3707 8.26136H21.4347L22.7216 3.45455H24.0384L25.3168 8.24006H25.3807L26.6548 3.45455H27.9716L26.0497 10H24.75L23.4205 5.27415H23.3224L21.9929 10H20.6974ZM33.196 10H31.7983L34.9389 1.27273H36.4602L39.6009 10H38.2031L35.7358 2.85795H35.6676L33.196 10ZM33.4304 6.58239H37.9645V7.69034H33.4304V6.58239ZM42.033 1.27273V10H40.7589V1.27273H42.033ZM45.0213 1.27273V10H43.7472V1.27273H45.0213Z" fill="#878787"/>
</svg>
